<svg xmlns="http://www.w3.org/2000/svg" width="190.671" height="170.729" viewBox="0 0 190.671 170.729">
  <path id="Icon_map-jewelry-store" data-name="Icon map-jewelry-store" d="M193.087,58.2l-.058-.448a5.632,5.632,0,0,0-.563-1.605l-28.1-45.228s-3.583-4.435-4.435-4.435H40.2L4.194,54.608l-.426.443-.058.208a7.893,7.893,0,0,0-.745,1.552l-.146.43a6.984,6.984,0,0,0,.058,4.213l.169.483A7.474,7.474,0,0,0,3.879,63.5L90.933,173.772l.177.253a7.534,7.534,0,0,0,1.659,1.552l.506.315a8.963,8.963,0,0,0,1.769.834l.492.164a8.553,8.553,0,0,0,4.723-.027l.59-.208a8.634,8.634,0,0,0,1.721-.843l.39-.244a6.9,6.9,0,0,0,1.5-1.392L191.628,63.787a7.747,7.747,0,0,0,1.463-3.5l.067-.572.035-.452-.106-1.064Zm-46.74-2.936,12.408-22.452,12.4,22.452Zm-7.441,13.3h29.436l-49.064,62.15Zm-7.282-20.035L113.7,24.218h31.352Zm-57.4,20.035h47.268L97.851,143.4Zm4.687-13.3,18.94-25.7,18.94,25.7H78.911ZM65.572,46.515l-8.213-22.3H82Zm10.86,84.2L27.364,68.563H56.805ZM43.151,32.963l8.217,22.3H26.721Z" transform="translate(-2.522 -6.48)" fill="#2d2c2c"/>
</svg>
