<svg id="Icon_ionic-ios-close-circle-outline" data-name="Icon ionic-ios-close-circle-outline" xmlns="http://www.w3.org/2000/svg" width="29.25" height="30" viewBox="0 0 29.25 30">
  <path id="Path_19" data-name="Path 19" d="M23.295,21.705,19.589,18l3.705-3.705a1.124,1.124,0,0,0-1.589-1.589L18,16.411l-3.705-3.705a1.124,1.124,0,0,0-1.589,1.589L16.411,18l-3.705,3.705a1.086,1.086,0,0,0,0,1.589,1.116,1.116,0,0,0,1.589,0L18,19.589l3.705,3.705a1.129,1.129,0,0,0,1.589,0A1.116,1.116,0,0,0,23.295,21.705Z" transform="translate(-3.375 -3)" fill="#ffe9e9"/>
  <path id="Path_20" data-name="Path 20" d="M18,5.394a12.415,12.415,0,0,1,8.951,3.8,13.225,13.225,0,0,1,0,18.361,12.441,12.441,0,0,1-17.9,0,13.225,13.225,0,0,1,0-18.361A12.415,12.415,0,0,1,18,5.394m0-2.019a14.814,14.814,0,0,0-14.625,15A14.814,14.814,0,0,0,18,33.375a14.814,14.814,0,0,0,14.625-15A14.814,14.814,0,0,0,18,3.375Z" transform="translate(-3.375 -3.375)" fill="#ffe9e9"/>
</svg>
